999
Inkscape export via OpenSCAD DXF Export
  0
SECTION
  2
HEADER
  9
$ACADVER
  1
AC1014
  9
$HANDSEED
  5
FFFF
  9
$MEASUREMENT
 70
     1
  0
ENDSEC
  0
SECTION
  2
TABLES
  0
TABLE
  2
VPORT
  5
8
330
0
100
AcDbSymbolTable
 70
     4
  0
VPORT
  5
2E
330
8
100
AcDbSymbolTableRecord
100
AcDbViewportTableRecord
  2
*ACTIVE
 70
     0
 10
0.0
 20
0.0
 11
1.0
 21
1.0
 12
210.0
 22
148.5
 13
0.0
 23
0.0
 14
10.0
 24
10.0
 15
10.0
 25
10.0
 16
0.0
 26
0.0
 36
1.0
 17
0.0
 27
0.0
 37
0.0
 40
341.0
 41
1.24
 42
50.0
 43
0.0
 44
0.0
 50
0.0
 51
0.0
 71
     0
 72
   100
 73
     1
 74
     3
 75
     0
 76
     0
 77
     0
 78
     0
  0
ENDTAB
  0
TABLE
  2
LTYPE
  5
5
330
0
100
AcDbSymbolTable
 70
     1
  0
LTYPE
  5
14
330
5
100
AcDbSymbolTableRecord
100
AcDbLinetypeTableRecord
  2
BYBLOCK
 70
     0
  3

 72
    65
 73
     0
 40
0.0
  0
LTYPE
  5
15
330
5
100
AcDbSymbolTableRecord
100
AcDbLinetypeTableRecord
  2
BYLAYER
 70
     0
  3

 72
    65
 73
     0
 40
0.0
  0
LTYPE
  5
16
330
5
100
AcDbSymbolTableRecord
100
AcDbLinetypeTableRecord
  2
CONTINUOUS
 70
     0
  3
Solid line
 72
    65
 73
     0
 40
0.0
  0
ENDTAB
  0
TABLE
0
TABLE
2
LAYER
5
2
330
0
100
AcDbSymbolTable
70
1
0
LAYER
5
10
330
2
100
AcDbSymbolTableRecord
100
AcDbLayerTableRecord
2
Layer_1
70
0
62
7
6
CONTINUOUS
0
ENDTAB
0
ENDSEC
  0
ENDTAB
  0
TABLE
  2
STYLE
  5
3
330
0
100
AcDbSymbolTable
 70
     1
  0
STYLE
  5
11
330
3
100
AcDbSymbolTableRecord
100
AcDbTextStyleTableRecord
  2
STANDARD
 70
     0
 40
0.0
 41
1.0
 50
0.0
 71
     0
 42
2.5
  3
txt
  4

  0
ENDTAB
  0
TABLE
  2
VIEW
  5
6
330
0
100
AcDbSymbolTable
 70
     0
  0
ENDTAB
  0
TABLE
  2
UCS
  5
7
330
0
100
AcDbSymbolTable
 70
     0
  0
ENDTAB
  0
TABLE
  2
APPID
  5
9
330
0
100
AcDbSymbolTable
 70
     2
  0
APPID
  5
12
330
9
100
AcDbSymbolTableRecord
100
AcDbRegAppTableRecord
  2
ACAD
 70
     0
  0
ENDTAB
  0
TABLE
  2
DIMSTYLE
  5
A
330
0
100
AcDbSymbolTable
 70
     1
  0
DIMSTYLE
105
27
330
A
100
AcDbSymbolTableRecord
100
AcDbDimStyleTableRecord
  2
ISO-25
 70
     0
  3

  4

  5

  6

  7

 40
1.0
 41
2.5
 42
0.625
 43
3.75
 44
1.25
 45
0.0
 46
0.0
 47
0.0
 48
0.0
140
2.5
141
2.5
142
0.0
143
0.03937007874016
144
1.0
145
0.0
146
1.0
147
0.625
 71
     0
 72
     0
 73
     0
 74
     0
 75
     0
 76
     0
 77
     1
 78
     8
170
     0
171
     3
172
     1
173
     0
174
     0
175
     0
176
     0
177
     0
178
     0
270
     2
271
     2
272
     2
273
     2
274
     3
340
11
275
     0
280
     0
281
     0
282
     0
283
     0
284
     8
285
     0
286
     0
287
     3
288
     0
  0
ENDTAB
  0
TABLE
  2
BLOCK_RECORD
  5
1
330
0
100
AcDbSymbolTable
 70
     1
  0
BLOCK_RECORD
  5
1F
330
1
100
AcDbSymbolTableRecord
100
AcDbBlockTableRecord
  2
*MODEL_SPACE
  0
BLOCK_RECORD
  5
1B
330
1
100
AcDbSymbolTableRecord
100
AcDbBlockTableRecord
  2
*PAPER_SPACE
  0
ENDTAB
  0
ENDSEC
  0
SECTION
  2
BLOCKS
  0
BLOCK
  5
20
330
1F
100
AcDbEntity
  8
0
100
AcDbBlockBegin
  2
*MODEL_SPACE
 70
     0
 10
0.0
 20
0.0
 30
0.0
  3
*MODEL_SPACE
  1

  0
ENDBLK
  5
21
330
1F
100
AcDbEntity
  8
0
100
AcDbBlockEnd
  0
BLOCK
  5
1C
330
1B
100
AcDbEntity
 67
     1
  8
0
100
AcDbBlockBegin
  2
*PAPER_SPACE
  1

  0
ENDBLK
  5
1D
330
1B
100
AcDbEntity
 67
     1
  8
0
100
AcDbBlockEnd
  0
ENDSEC
  0
SECTION
  2
ENTITIES
0
DIMENSION
5
83
100
AcDbEntity
62
256
370
-1
6
ByLayer
1
total_width
3
Standard
70
0
71
5
72
1
41
1.0
100
AcDbAlignedDimension
13
0.017057
23
0.000000
33
0.0
14
60.419321
24
0.000000
34
0.0
50
0.000000
100
AcDbRotatedDimension
0
DIMENSION
5
83
100
AcDbEntity
62
256
370
-1
6
ByLayer
1
total_minx
3
Standard
70
0
71
5
72
1
41
1.0
100
AcDbAlignedDimension
13
0.017057
23
0.000000
33
0.0
14
0.000000
24
0.000000
34
0.0
50
0.000000
100
AcDbRotatedDimension
0
DIMENSION
5
83
100
AcDbEntity
62
256
370
-1
6
ByLayer
1
total_maxx
3
Standard
70
0
71
5
72
1
41
1.0
100
AcDbAlignedDimension
13
0.000000
23
0.000000
33
0.0
14
60.419321
24
0.000000
34
0.0
50
0.000000
100
AcDbRotatedDimension
0
DIMENSION
5
83
100
AcDbEntity
62
256
370
-1
6
ByLayer
1
total_height
3
Standard
70
0
71
5
72
1
41
1.0
100
AcDbAlignedDimension
13
0.000000
23
-0.139220
33
0.0
14
0.000000
24
34.549318
34
0.0
50
90.000000
100
AcDbRotatedDimension
0
DIMENSION
5
83
100
AcDbEntity
62
256
370
-1
6
ByLayer
1
total_miny
3
Standard
70
0
71
5
72
1
41
1.0
100
AcDbAlignedDimension
13
-0.139220
23
0.000000
33
0.0
14
0.000000
24
0.000000
34
0.0
50
0.000000
100
AcDbRotatedDimension
0
DIMENSION
5
83
100
AcDbEntity
62
256
370
-1
6
ByLayer
1
total_maxy
3
Standard
70
0
71
5
72
1
41
1.0
100
AcDbAlignedDimension
13
0.000000
23
0.000000
33
0.0
14
34.549318
24
0.000000
34
0.0
50
0.000000
100
AcDbRotatedDimension
0
DIMENSION
8
Layer_1
5
83
100
AcDbEntity
62
256
370
-1
6
ByLayer
1
Layer_1_width
3
Standard
70
0
71
5
72
1
41
1.0
100
AcDbAlignedDimension
13
0.017057
23
0.000000
33
0.0
14
60.419321
24
0.000000
34
0.0
50
0.000000
100
AcDbRotatedDimension
0
DIMENSION
8
Layer_1
5
83
100
AcDbEntity
62
256
370
-1
6
ByLayer
1
Layer_1_minx
3
Standard
70
0
71
5
72
1
41
1.0
100
AcDbAlignedDimension
13
0.017057
23
0.000000
33
0.0
14
0.000000
24
0.000000
34
0.0
50
0.000000
100
AcDbRotatedDimension
0
DIMENSION
8
Layer_1
5
83
100
AcDbEntity
62
256
370
-1
6
ByLayer
1
Layer_1_maxx
3
Standard
70
0
71
5
72
1
41
1.0
100
AcDbAlignedDimension
13
0.000000
23
0.000000
33
0.0
14
60.419321
24
0.000000
34
0.0
50
0.000000
100
AcDbRotatedDimension
0
DIMENSION
8
Layer_1
5
83
100
AcDbEntity
62
256
370
-1
6
ByLayer
1
Layer_1_height
3
Standard
70
0
71
5
72
1
41
1.0
100
AcDbAlignedDimension
13
0.000000
23
-0.139220
33
0.0
14
0.000000
24
34.549318
34
0.0
50
90.000000
100
AcDbRotatedDimension
0
DIMENSION
8
Layer_1
5
83
100
AcDbEntity
62
256
370
-1
6
ByLayer
1
Layer_1_miny
3
Standard
70
0
71
5
72
1
41
1.0
100
AcDbAlignedDimension
13
-0.139220
23
0.000000
33
0.0
14
0.000000
24
0.000000
34
0.0
50
0.000000
100
AcDbRotatedDimension
0
DIMENSION
8
Layer_1
5
83
100
AcDbEntity
62
256
370
-1
6
ByLayer
1
Layer_1_maxy
3
Standard
70
0
71
5
72
1
41
1.0
100
AcDbAlignedDimension
13
0.000000
23
0.000000
33
0.0
14
34.549318
24
0.000000
34
0.0
50
0.000000
100
AcDbRotatedDimension
62
0
0
LWPOLYLINE
100
AcDbPolyline
8
Layer_1
90
160
70
0
10
9.764996
20
0.322492
30
0.0
10
9.680995
20
0.908005
30
0.0
10
9.876012
20
1.289302
30
0.0
10
10.405500
20
1.653098
30
0.0
10
23.276548
20
7.091253
30
0.0
10
27.249367
20
8.789993
30
0.0
10
25.672642
20
8.635805
30
0.0
10
23.940383
20
8.524546
30
0.0
10
22.706555
20
8.567868
30
0.0
10
20.795933
20
8.963884
30
0.0
10
20.795933
20
8.963884
30
0.0
10
14.749805
20
6.667358
30
0.0
10
9.674169
20
4.484549
30
0.0
10
5.263283
20
2.531718
30
0.0
10
0.381098
20
0.730722
30
0.0
10
0.128839
20
1.546727
30
0.0
10
0.017057
20
2.515788
30
0.0
10
0.751205
20
3.022334
30
0.0
10
3.032324
20
4.037110
30
0.0
10
13.382678
20
8.067895
30
0.0
10
18.316583
20
9.872409
30
0.0
10
17.743169
20
10.511450
30
0.0
10
17.135029
20
11.335961
30
0.0
10
16.838578
20
12.565019
30
0.0
10
16.807491
20
14.670193
30
0.0
10
16.995443
20
18.123051
30
0.0
10
17.289250
20
21.755590
30
0.0
10
17.655324
20
24.355246
30
0.0
10
18.164107
20
26.286878
30
0.0
10
18.886043
20
27.915345
30
0.0
10
19.590534
20
28.994687
30
0.0
10
20.316446
20
29.773800
30
0.0
10
21.184444
20
30.696219
30
0.0
10
22.230549
20
32.120104
30
0.0
10
23.261157
20
33.504489
30
0.0
10
24.058906
20
34.240023
30
0.0
10
24.599193
20
34.412623
30
0.0
10
25.605466
20
34.500617
30
0.0
10
30.415117
20
34.474375
30
0.0
10
38.465021
20
34.549318
30
0.0
10
43.493256
20
34.207278
30
0.0
10
51.221228
20
33.105581
30
0.0
10
56.672775
20
32.266655
30
0.0
10
58.534612
20
31.931031
30
0.0
10
59.961043
20
31.522945
30
0.0
10
60.244236
20
30.338348
30
0.0
10
60.097220
20
30.102074
30
0.0
10
59.547198
20
30.126641
30
0.0
10
55.619022
20
30.437256
30
0.0
10
53.963392
20
30.587831
30
0.0
10
40.866373
20
31.289313
30
0.0
10
40.676222
20
30.198531
30
0.0
10
40.290924
20
28.976321
30
0.0
10
39.001157
20
26.248315
30
0.0
10
37.129614
20
23.326697
30
0.0
10
34.808839
20
20.432864
30
0.0
10
32.171373
20
17.788218
30
0.0
10
29.349760
20
15.614159
30
0.0
10
27.911318
20
14.772787
30
0.0
10
26.476542
20
14.132087
30
0.0
10
25.062000
20
13.719733
30
0.0
10
23.684260
20
13.563402
30
0.0
10
22.355653
20
13.643336
30
0.0
10
21.442374
20
13.924506
30
0.0
10
20.695820
20
14.400449
30
0.0
10
19.867390
20
15.064699
30
0.0
10
19.409475
20
15.615640
30
0.0
10
19.130982
20
16.443234
30
0.0
10
19.224811
20
17.343836
30
0.0
10
19.471626
20
17.757877
30
0.0
10
19.883858
20
18.113803
30
0.0
10
20.192866
20
18.196450
30
0.0
10
20.275199
20
17.764608
30
0.0
10
20.591868
20
17.273813
30
0.0
10
21.076540
20
16.938728
30
0.0
10
22.219848
20
16.570890
30
0.0
10
23.329311
20
16.495118
30
0.0
10
24.561693
20
16.726591
30
0.0
10
25.904237
20
17.241895
30
0.0
10
27.344186
20
18.017617
30
0.0
10
30.465269
20
20.256658
30
0.0
10
33.822885
20
23.256401
30
0.0
10
35.741621
20
25.355933
30
0.0
10
37.259040
20
27.521711
30
0.0
10
38.335250
20
29.644804
30
0.0
10
38.930362
20
31.616276
30
0.0
10
36.239605
20
31.714718
30
0.0
10
33.935091
20
31.897087
30
0.0
10
27.516886
20
32.376327
30
0.0
10
24.719945
20
32.546163
30
0.0
10
24.719945
20
32.546163
30
0.0
10
23.631583
20
31.297922
30
0.0
10
23.631583
20
31.297922
30
0.0
10
26.690286
20
31.169561
30
0.0
10
30.560959
20
30.916821
30
0.0
10
33.885745
20
30.326641
30
0.0
10
36.156874
20
29.626978
30
0.0
10
36.738639
20
29.307327
30
0.0
10
36.866576
20
29.045789
30
0.0
10
36.715970
20
28.699050
30
0.0
10
36.305174
20
28.185382
30
0.0
10
35.428817
20
27.799211
30
0.0
10
33.881528
20
27.834968
30
0.0
10
29.948366
20
28.357497
30
0.0
10
26.265025
20
28.541242
30
0.0
10
23.318754
20
28.376025
30
0.0
10
22.274285
20
28.159375
30
0.0
10
21.596802
20
27.851667
30
0.0
10
20.990247
20
27.245744
30
0.0
10
20.457985
20
26.386718
30
0.0
10
19.998390
20
25.269715
30
0.0
10
19.609836
20
23.889855
30
0.0
10
19.289506
20
21.985760
30
0.0
10
19.033526
20
19.457354
30
0.0
10
18.800050
20
13.896547
30
0.0
10
18.868696
20
12.138983
30
0.0
10
18.938762
20
11.798980
30
0.0
10
19.427913
20
11.255026
30
0.0
10
20.081742
20
10.834864
30
0.0
10
21.847738
20
10.317754
30
0.0
10
24.165363
20
10.151321
30
0.0
10
26.963229
20
10.239236
30
0.0
10
29.026640
20
10.476995
30
0.0
10
31.091617
20
10.882416
30
0.0
10
32.807149
20
11.348051
30
0.0
10
33.822228
20
11.766449
30
0.0
10
34.417380
20
12.681136
30
0.0
10
35.403011
20
14.353350
30
0.0
10
36.106889
20
15.224599
30
0.0
10
36.896835
20
15.990225
30
0.0
10
37.953495
20
16.819953
30
0.0
10
57.856111
20
22.857114
30
0.0
10
59.489551
20
23.305925
30
0.0
10
60.153069
20
23.313516
30
0.0
10
60.254947
20
22.873266
30
0.0
10
60.203466
20
21.978552
30
0.0
10
54.430540
20
20.143290
30
0.0
10
43.693454
20
16.647873
30
0.0
10
38.561458
20
14.785137
30
0.0
10
37.908167
20
14.661226
30
0.0
10
37.447046
20
14.382341
30
0.0
10
36.912674
20
13.691227
30
0.0
10
36.590316
20
13.071287
30
0.0
10
36.579252
20
12.782911
30
0.0
10
36.926672
20
12.788466
30
0.0
10
53.105552
20
18.725234
30
0.0
10
58.252233
20
20.393355
30
0.0
10
59.724466
20
20.741087
30
0.0
10
60.323419
20
20.703166
30
0.0
10
60.419321
20
19.999695
30
0.0
10
59.644331
20
19.543264
30
0.0
10
57.144986
20
18.498937
30
0.0
10
45.444034
20
14.037796
30
0.0
10
34.757172
20
9.928268
30
0.0
10
26.331963
20
6.508456
30
0.0
10
14.452749
20
1.355896
30
0.0
10
10.952020
20
-0.139220
30
0.0
10
10.341800
20
0.025121
30
0.0
10
9.764996
20
0.322491
30
0.0
10
9.764996
20
0.322492
30
0.0
  0
ENDSEC
  0
SECTION
  2
OBJECTS
  0
DICTIONARY
  5
C
330
0
100
AcDbDictionary
  3
ACAD_GROUP
350
D
  3
ACAD_MLINESTYLE
350
17
  0
DICTIONARY
  5
D
330
C
100
AcDbDictionary
  0
DICTIONARY
  5
1A
330
C
100
AcDbDictionary
  0
DICTIONARY
  5
17
330
C
100
AcDbDictionary
  3
STANDARD
350
18
  0
DICTIONARY
  5
19
330
C
100
AcDbDictionary
  0
ENDSEC
  0
EOF
